PathFileType	4	(X/Y/Z)	/Users/niels/Desktop/University/Third Semester/Perception and Action/Exam/Gymnastics Motion Tracking/Code for Gym Tracking/Analyzed Data/Webcam_Backflip/id3_2_baseline_Sports2D/id3_2_baseline_Sports2D_px_person00.trc
DataRate	CameraRate	NumFrames	NumMarkers	Units	OrigDataRate	OrigDataStartFrame	OrigNumFrames
29.8125	29.8125	9	22	m	29.8125	100	160
Frame#	Time	Hip			RHip			RKnee			RAnkle			RBigToe			RSmallToe			RHeel			LHip			LKnee			LAnkle			LBigToe			LSmallToe			LHeel			Neck			Head			Nose			RShoulder			RElbow			RWrist			LShoulder			LElbow			LWrist		
		X1	Y1	Z1	X2	Y2	Z2	X3	Y3	Z3	X4	Y4	Z4	X5	Y5	Z5	X6	Y6	Z6	X7	Y7	Z7	X8	Y8	Z8	X9	Y9	Z9	X10	Y10	Z10	X11	Y11	Z11	X12	Y12	Z12	X13	Y13	Z13	X14	Y14	Z14	X15	Y15	Z15	X16	Y16	Z16	X17	Y17	Z17	X18	Y18	Z18	X19	Y19	Z19	X20	Y20	Z20	X21	Y21	Z21	X22	Y22	Z22
100	3.354297693920335	1.6187798811276022	-0.5204785811854755	0.0	1.6196217940096849	-0.5215608328857494	0.0	1.6588940822910658	-0.6323224628161102	0.0	1.64582442772914	-0.7567161877476873	0.0	1.693488914266659	-0.7740907499450077	0.0	1.68330261509941	-0.7804124946549524	0.0	1.6361462602953425	-0.7721685422940945	0.0	1.6161940408828641	-0.520049249450094	0.0	1.6808444698867977	-0.6113555508445186	0.0	1.6438614513334213	-0.7161561727832308	0.0	1.6824424838435244	-0.7467456647340569	0.0	1.6751071725724787	-0.7415497951957423	0.0	1.6299573222899078	-0.7306608806541361	0.0	1.6666064202026285	-0.3591818207369065	0.0	1.7311793780286113	-0.2943400238098246	0.0	1.7135448896374632	-0.35203284504063215	0.0	1.6635215190785755	-0.3775769030253933	0.0	1.6568675478755426	-0.46056690184172455	0.0	1.6997012603278185	-0.5298467620058831	0.0	1.6355932069238825	-0.37147897970801974	0.0	1.618166417334788	-0.45190515614650667	0.0	1.6334671730231	-0.5153149880416444	0.0
101	3.3878406708595383	1.627570993545087	-0.5187647115558838	0.0	1.6266527613895314	-0.5195285603823633	0.0	1.6599451400616947	-0.6318124315250152	0.0	1.6460647354985385	-0.7553896979975544	0.0	1.6931844294691565	-0.7745091849688787	0.0	1.6823094225231991	-0.7805548655206598	0.0	1.6363302761557534	-0.7714176180453102	0.0	1.6284383094516248	-0.5183825635469309	0.0	1.69087969514999	-0.610346241725455	0.0	1.6676485170266648	-0.7225505844868924	0.0	1.710726914598586	-0.7491510416329737	0.0	1.7037478692604702	-0.7444903370961324	0.0	1.6563938667033045	-0.7395705490317466	0.0	1.6709294296585184	-0.3544511282527133	0.0	1.7325634196360298	-0.28595589201565935	0.0	1.7178868510539882	-0.3446282242961512	0.0	1.668583576716681	-0.3738058687927739	0.0	1.6615627854679544	-0.45781830014971486	0.0	1.7042060649035708	-0.5267349854568303	0.0	1.6409349442353562	-0.3677478107846269	0.0	1.6233777302657588	-0.4493435317178792	0.0	1.6379422290222678	-0.5127720298842862	0.0
102	3.421383647798742	1.636616596612797	-0.518035040236672	0.0	1.6340961283555173	-0.5183802095759726	0.0	1.6616868633424553	-0.6317548753348722	0.0	1.6462067632065656	-0.754155566516891	0.0	1.6923507052366693	-0.7748616694861366	0.0	1.6811472527789804	-0.7805569135823144	0.0	1.6360108901147967	-0.7706521072743747	0.0	1.640926980039722	-0.5176571380129377	0.0	1.698118648961556	-0.6113625069779689	0.0	1.6862048085298122	-0.7284761087869442	0.0	1.7328450941153468	-0.751915025389318	0.0	1.7261672356821034	-0.7477906433537036	0.0	1.6775229417354842	-0.7472536772029056	0.0	1.6744786187932843	-0.35041570308263237	0.0	1.7326954328935698	-0.2783927850749864	0.0	1.72170221863941	-0.3375499771260753	0.0	1.672621932753799	-0.3708316016830264	0.0	1.6650696727920764	-0.4555900957676926	0.0	1.707758054823372	-0.5243936368150174	0.0	1.6460971614558668	-0.3650699844014131	0.0	1.6285977408126968	-0.44768806600877203	0.0	1.6424995863807148	-0.511364662781381	0.0
103	3.454926624737945	1.6456848452912556	-0.5179671545615356	0.0	1.6416619273078472	-0.5178521846265285	0.0	1.6645222830545368	-0.6317028831744446	0.0	1.646375025074375	-0.7529317443975561	0.0	1.6913241306187183	-0.7750045041750342	0.0	1.680192241459705	-0.7803578401344298	0.0	1.6353823880663083	-0.7697937585550285	0.0	1.6531266356941567	-0.517486003467824	0.0	1.7032153446882055	-0.6136716196674687	0.0	1.6986817492442425	-0.7332481981415272	0.0	1.7483517275111606	-0.7545582090996732	0.0	1.7416700101094955	-0.7509592523313493	0.0	1.6920117403605628	-0.7530686062550205	0.0	1.6773668143844551	-0.34703250542483666	0.0	1.7317779868253789	-0.2718069257464355	0.0	1.724918510651347	-0.33082427134775744	0.0	1.675655104924106	-0.3684781520384283	0.0	1.667549566789592	-0.45380121455123484	0.0	1.7106231136875292	-0.5227361631768357	0.0	1.651139971149787	-0.36325148263922674	0.0	1.6339355770954898	-0.44672062164910364	0.0	1.6473703652970002	-0.5108628979941808	0.0
104	3.4884696016771484	1.6544141346750538	-0.5181533990178716	0.0	1.6490334102068063	-0.5175690453815808	0.0	1.6686838934494799	-0.6314046871489996	0.0	1.6466844198077168	-0.751632898173152	0.0	1.690382348542713	-0.774867317414568	0.0	1.6796762129584604	-0.7798634033430698	0.0	1.6347394002306275	-0.7687756321446493	0.0	1.6640903723287648	-0.5174051382891419	0.0	1.7066997270088597	-0.6164566999285681	0.0	1.7056238639814287	-0.7366473937091313	0.0	1.7577990121082012	-0.7566810457802983	0.0	1.7506506461446663	-0.7536032421578749	0.0	1.7002842401288445	-0.7570229375229911	0.0	1.6796778275235782	-0.3441939481115807	0.0	1.7300741869588312	-0.2662751814767235	0.0	1.7274103601933573	-0.32456723602868537	0.0	1.6778513436724007	-0.3665415523234105	0.0	1.66923382188066	-0.4523767133431166	0.0	1.712923270042184	-0.5215816202238014	0.0	1.655884306393625	-0.361986210904579	0.0	1.6391886143776715	-0.44610222752468187	0.0	1.6531477771497562	-0.5108252655138659	0.0
105	3.522012578616352	1.662374669290915	-0.5181788345457736	0.0	1.6559423349007805	-0.5171512977113358	0.0	1.6742018763915902	-0.6307962473067665	0.0	1.6471863292329871	-0.7501697447488068	0.0	1.6895661687441064	-0.7744220466040602	0.0	1.679528006779951	-0.7789207714760242	0.0	1.6343131012277987	-0.7674478668643883	0.0	1.6727505989805982	-0.5170076982866797	0.0	1.7089193569574197	-0.6190002408934177	0.0	1.708481735468565	-0.7387465459129021	0.0	1.7624710977713605	-0.7579669052405323	0.0	1.7543787239944404	-0.7553988494036267	0.0	1.7039204631405518	-0.7593715515452473	0.0	1.6814819056451735	-0.3417722632498297	0.0	1.7278958769955175	-0.26177519553341183	0.0	1.7291112003666083	-0.3189431324080056	0.0	1.6794718331670124	-0.36487801209910664	0.0	1.6703619635832925	-0.4512187001894751	0.0	1.7146659284776247	-0.5206786213694361	0.0	1.6600000472747152	-0.3609694271319598	0.0	1.6440621146931818	-0.44546963448726773	0.0	1.6604484773874524	-0.5107553475053999	0.0
106	3.555555555555555	1.66921771867291	-0.5177541649708485	0.0	1.6621901851700227	-0.5163559931425812	0.0	1.6808805237922781	-0.6299282178605736	0.0	1.6478566370362806	-0.7484281026749925	0.0	1.688737039999907	-0.7736801703002194	0.0	1.6794961299420303	-0.7774324007407993	0.0	1.6341714722980079	-0.7655662821524567	0.0	1.6784686019796757	-0.5160683384491869	0.0	1.7100920576974996	-0.6208055804092101	0.0	1.7088864776270947	-0.7397941871187216	0.0	1.7637976663464348	-0.7582765469438234	0.0	1.7544267448553665	-0.756145035677099	0.0	1.7047601763432	-0.7604024419793629	0.0	1.6828480452026655	-0.3396831788321448	0.0	1.7256030325960143	-0.25818339485551883	0.0	1.7300881366063234	-0.31410044637487483	0.0	1.6807548441503564	-0.3634467872421761	0.0	1.6711127454832218	-0.45021249383236706	0.0	1.715817830775638	-0.5197843729649021	0.0	1.6632196322994743	-0.36000206011125613	0.0	1.6483340412912595	-0.444566106447407	0.0	1.6690812847316099	-0.5102489087792735	0.0
107	3.5890985324947584	1.674812861932608	-0.516832412418592	0.0	1.66770258940205	-0.5151581864193192	0.0	1.6883926992200282	-0.6288750198286273	0.0	1.6486624569972246	-0.7462412349184092	0.0	1.6877626097124145	-0.7726737315963149	0.0	1.6793466406225515	-0.7754246103687209	0.0	1.6342722933726979	-0.7628727000788432	0.0	1.681327482412807	-0.5146195366491826	0.0	1.7103505073348895	-0.6216809694484657	0.0	1.7081787908523667	-0.7401173102580241	0.0	1.762981728087405	-0.7576939247483034	0.0	1.75224888961527	-0.7558266248555451	0.0	1.7043306578557988	-0.7604137739535537	0.0	1.6838554411335296	-0.3379086308864954	0.0	1.7235225157065566	-0.25534667049366566	0.0	1.7305175782697173	-0.31014572130023543	0.0	1.6818272186662329	-0.3622496068927402	0.0	1.6716253550210594	-0.44930553071890433	0.0	1.7164196308573263	-0.5187868216186036	0.0	1.6655183375057603	-0.35903052398775614	0.0	1.6520705514462266	-0.44335741327418915	0.0	1.6780540493787257	-0.509213645963848	0.0
108	3.622641509433962	1.6792662746118738	-0.5155990753175655	0.0	1.672559375229376	-0.5137300309692272	0.0	1.6964314258327535	-0.6277167085090924	0.0	1.649671922834504	-0.7434508323602558	0.0	1.6867126429132087	-0.771418875322672	0.0	1.6790174867110728	-0.7729941956460923	0.0	1.6346007372391307	-0.7592245590388197	0.0	1.682048979878349	-0.5129327455570452	0.0	1.7098321515001138	-0.6217895916657963	0.0	1.7072183389912754	-0.7400159963086761	0.0	1.7610149495446832	-0.7565295839448739	0.0	1.7490856664557342	-0.7546652119869235	0.0	1.703618543024712	-0.7597508404333995	0.0	1.6846058628926128	-0.3364917059675695	0.0	1.7218009646477594	-0.2531686788254957	0.0	1.7306077824018333	-0.30712965864194086	0.0	1.6827210898416023	-0.361265491122731	0.0	1.6720614195275065	-0.4485284024179819	0.0	1.7166945636756865	-0.5177397414279779	0.0	1.6671464598631518	-0.3581163909082171	0.0	1.6558023375863915	-0.4420310033252659	0.0	1.6866788661939065	-0.5079310373270427	0.0
